<mxfile host="app.diagrams.net" modified="2021-05-19T13:23:18.400Z" agent="5.0 (Windows NT 10.0; Win64; x64) AppleWebKit/537.36 (KHTML, like Gecko) Chrome/80.0.3987.106 Safari/537.36" etag="tVpSWkAISxL-PdJEEpyf" version="14.6.13" type="github">
  <diagram id="0NkQVKkjiY16Mv8_hGM-" name="第 1 页">
    <mxGraphModel dx="1038" dy="499" grid="1" gridSize="10" guides="1" tooltips="1" connect="1" arrows="1" fold="1" page="1" pageScale="1" pageWidth="827" pageHeight="1169" math="0" shadow="0">
      <root>
        <mxCell id="0" />
        <mxCell id="1" parent="0" />
        <mxCell id="mJ2ZwC3W8twm8bOTgpni-9" style="edgeStyle=orthogonalEdgeStyle;rounded=0;orthogonalLoop=1;jettySize=auto;html=1;exitX=0.5;exitY=1;exitDx=0;exitDy=0;exitPerimeter=0;entryX=0.5;entryY=0;entryDx=0;entryDy=0;" edge="1" parent="1" source="mJ2ZwC3W8twm8bOTgpni-1" target="mJ2ZwC3W8twm8bOTgpni-2">
          <mxGeometry relative="1" as="geometry" />
        </mxCell>
        <mxCell id="mJ2ZwC3W8twm8bOTgpni-1" value="开始" style="strokeWidth=2;html=1;shape=mxgraph.flowchart.terminator;whiteSpace=wrap;" vertex="1" parent="1">
          <mxGeometry x="364" y="50" width="76" height="40" as="geometry" />
        </mxCell>
        <mxCell id="mJ2ZwC3W8twm8bOTgpni-10" style="edgeStyle=orthogonalEdgeStyle;rounded=0;orthogonalLoop=1;jettySize=auto;html=1;exitX=0.5;exitY=1;exitDx=0;exitDy=0;entryX=0.5;entryY=0;entryDx=0;entryDy=0;" edge="1" parent="1" source="mJ2ZwC3W8twm8bOTgpni-2" target="mJ2ZwC3W8twm8bOTgpni-3">
          <mxGeometry relative="1" as="geometry" />
        </mxCell>
        <mxCell id="mJ2ZwC3W8twm8bOTgpni-2" value="NMEA_GPGSV_Analysis(gpsx,buf);" style="rounded=0;whiteSpace=wrap;html=1;" vertex="1" parent="1">
          <mxGeometry x="298" y="120" width="208" height="30" as="geometry" />
        </mxCell>
        <mxCell id="mJ2ZwC3W8twm8bOTgpni-11" style="edgeStyle=orthogonalEdgeStyle;rounded=0;orthogonalLoop=1;jettySize=auto;html=1;exitX=0.5;exitY=1;exitDx=0;exitDy=0;entryX=0.5;entryY=0;entryDx=0;entryDy=0;" edge="1" parent="1" source="mJ2ZwC3W8twm8bOTgpni-3" target="mJ2ZwC3W8twm8bOTgpni-4">
          <mxGeometry relative="1" as="geometry" />
        </mxCell>
        <mxCell id="mJ2ZwC3W8twm8bOTgpni-3" value="NMEA_BDGSV_Analysis(gpsx,buf);" style="rounded=0;whiteSpace=wrap;html=1;" vertex="1" parent="1">
          <mxGeometry x="298" y="180" width="208" height="30" as="geometry" />
        </mxCell>
        <mxCell id="mJ2ZwC3W8twm8bOTgpni-12" style="edgeStyle=orthogonalEdgeStyle;rounded=0;orthogonalLoop=1;jettySize=auto;html=1;exitX=0.5;exitY=1;exitDx=0;exitDy=0;" edge="1" parent="1" source="mJ2ZwC3W8twm8bOTgpni-4" target="mJ2ZwC3W8twm8bOTgpni-5">
          <mxGeometry relative="1" as="geometry" />
        </mxCell>
        <mxCell id="mJ2ZwC3W8twm8bOTgpni-4" value="NMEA_GNGGA_Analysis(gpsx,buf);" style="rounded=0;whiteSpace=wrap;html=1;" vertex="1" parent="1">
          <mxGeometry x="298" y="240" width="208" height="30" as="geometry" />
        </mxCell>
        <mxCell id="mJ2ZwC3W8twm8bOTgpni-13" style="edgeStyle=orthogonalEdgeStyle;rounded=0;orthogonalLoop=1;jettySize=auto;html=1;exitX=0.5;exitY=1;exitDx=0;exitDy=0;entryX=0.5;entryY=0;entryDx=0;entryDy=0;" edge="1" parent="1" source="mJ2ZwC3W8twm8bOTgpni-5" target="mJ2ZwC3W8twm8bOTgpni-6">
          <mxGeometry relative="1" as="geometry" />
        </mxCell>
        <mxCell id="mJ2ZwC3W8twm8bOTgpni-5" value="NMEA_GNGSA_Analysis(gpsx,buf);" style="rounded=0;whiteSpace=wrap;html=1;" vertex="1" parent="1">
          <mxGeometry x="298" y="300" width="208" height="30" as="geometry" />
        </mxCell>
        <mxCell id="mJ2ZwC3W8twm8bOTgpni-14" style="edgeStyle=orthogonalEdgeStyle;rounded=0;orthogonalLoop=1;jettySize=auto;html=1;exitX=0.5;exitY=1;exitDx=0;exitDy=0;" edge="1" parent="1" source="mJ2ZwC3W8twm8bOTgpni-6" target="mJ2ZwC3W8twm8bOTgpni-7">
          <mxGeometry relative="1" as="geometry" />
        </mxCell>
        <mxCell id="mJ2ZwC3W8twm8bOTgpni-6" value="NMEA_GNRMC_Analysis(gpsx,buf);" style="rounded=0;whiteSpace=wrap;html=1;" vertex="1" parent="1">
          <mxGeometry x="298" y="360" width="208" height="30" as="geometry" />
        </mxCell>
        <mxCell id="mJ2ZwC3W8twm8bOTgpni-15" style="edgeStyle=orthogonalEdgeStyle;rounded=0;orthogonalLoop=1;jettySize=auto;html=1;exitX=0.5;exitY=1;exitDx=0;exitDy=0;entryX=0.5;entryY=0;entryDx=0;entryDy=0;entryPerimeter=0;" edge="1" parent="1" source="mJ2ZwC3W8twm8bOTgpni-7" target="mJ2ZwC3W8twm8bOTgpni-8">
          <mxGeometry relative="1" as="geometry" />
        </mxCell>
        <mxCell id="mJ2ZwC3W8twm8bOTgpni-7" value="NMEA_GNVTG_Analysis(gpsx,buf);" style="rounded=0;whiteSpace=wrap;html=1;" vertex="1" parent="1">
          <mxGeometry x="298" y="420" width="208" height="30" as="geometry" />
        </mxCell>
        <mxCell id="mJ2ZwC3W8twm8bOTgpni-8" value="结束" style="strokeWidth=2;html=1;shape=mxgraph.flowchart.terminator;whiteSpace=wrap;" vertex="1" parent="1">
          <mxGeometry x="364" y="480" width="76" height="40" as="geometry" />
        </mxCell>
      </root>
    </mxGraphModel>
  </diagram>
</mxfile>
